P1
# Este é um exemplo simples de arquivo PBM
10 10
0 0 0 0 0 0 0 0 0 0
0 1 1 1 1 1 1 1 1 0
0 1 0 0 0 0 0 0 1 0
0 1 0 1 1 1 1 0 1 0
0 1 0 1 0 0 1 0 1 0
0 1 0 1 0 0 1 0 1 0
0 1 0 1 1 1 1 0 1 0
0 1 0 0 0 0 0 0 1 0
0 1 1 1 1 1 1 1 1 0
0 0 0 0 0 0 0 0 0 0